# xmcd
#
# Track frame offsets: 
#        150
#        14067
#        24303
#        39342
#        52883
#        68145
#        86709
#        102584
#        115582
#        131819
#        145660
#        160793
#        173160
#        190153
#
# Disc length: 2732 seconds
#
# Revision: 0
# Processed by: cddbd v1.5.2PL0 Copyright (c) Steve Scherf et al.
# Submitted via: ExactAudioCopy v0.99pb3
#
DISCID=b60aaa0e
DTITLE=Peter Koerner - The Blues
DYEAR=2002
DGENRE=Blues
TTITLE0=Hootchie Coochie Man
TTITLE1=Alabama Blues
TTITLE2=Come On in My Kitchen
TTITLE3=Jimmy Bell
TTITLE4=Sail On/Long Distance Call
TTITLE5=I Feel Good
TTITLE6=Riverside Blues
TTITLE7=She Had the Nerve
TTITLE8=Arkansas State Prison
TTITLE9=Ramblin' On My Mind
TTITLE10=Come On in My Kitchen
TTITLE11=Stones in My Passway
TTITLE12=Fixin' to Die
TTITLE13=Hellhound on My Trail
EXTD=
EXTT0=
EXTT1=
EXTT2=
EXTT3=
EXTT4=
EXTT5=
EXTT6=
EXTT7=
EXTT8=
EXTT9=
EXTT10=
EXTT11=
EXTT12=
EXTT13=
PLAYORDER=
